<?xml version="1.0" encoding="utf-8"?>
<!-- Generator: Adobe Illustrator 22.1.0, SVG Export Plug-In . SVG Version: 6.00 Build 0)  -->
<svg version="1.1" id="ArrowRightAddAllDualSelector"
	 xmlns="http://www.w3.org/2000/svg" xmlns:xlink="http://www.w3.org/1999/xlink" x="0px" y="0px" width="14px" height="14px"
	 viewBox="0 0 14 14" enable-background="new 0 0 14 14" xml:space="preserve">
<rect id="svgToolTipPane" fill="none" width="14" height="14"/>
<path id="iconColor" d="M8,7L7,8H5v2c0,0.552-0.448,1-1,1s-1-0.448-1-1V8H1C0.448,8,0,7.552,0,7c0-0.552,0.448-1,1-1h2V4
	c0-0.552,0.448-1,1-1s1,0.448,1,1v2h2L8,7z M10.879,10.825l3-3.5c0.161-0.187,0.161-0.463,0-0.65l-3-3.5
	c-0.179-0.21-0.495-0.233-0.705-0.054C9.965,3.3,9.94,3.616,10.121,3.825L12.841,7l-2.721,3.175
	c-0.18,0.209-0.156,0.525,0.054,0.705C10.269,10.96,10.385,11,10.5,11C10.641,11,10.781,10.941,10.879,10.825z M7.879,10.825l3-3.5
	c0.161-0.187,0.161-0.463,0-0.65l-3-3.5c-0.179-0.21-0.495-0.233-0.705-0.054C6.965,3.3,6.94,3.616,7.121,3.825L9.841,7
	l-2.721,3.175c-0.18,0.209-0.156,0.525,0.054,0.705C7.269,10.96,7.385,11,7.5,11C7.641,11,7.781,10.941,7.879,10.825z" fill="#C5C5C5"/>
</svg>
