<?xml version="1.0" encoding="utf-8"?>
<!-- Generator: Adobe Illustrator 26.3.1, SVG Export Plug-In . SVG Version: 6.00 Build 0)  -->
<svg version="1.1" id="ConnectorNodeIndicator" xmlns="http://www.w3.org/2000/svg" xmlns:xlink="http://www.w3.org/1999/xlink"
	 x="0px" y="0px" width="16px" height="16px" viewBox="0 0 16 16" enable-background="new 0 0 16 16" xml:space="preserve">
<path id="VS_BG" fill="#c5c5c5" d="M4,9.017c0,0,0.853-1.483,1.55-2.468L3.207,4.207c-0.276-0.276-0.276-0.724,0-1
	s0.724-0.276,1,0l2.334,2.334C7.465,4.851,9,4.017,9,4.017l1,1l-5,5L4,9.017z M11,6l-5,5l1,1c0,0,1.535-0.833,2.459-1.524
	l2.334,2.334c0.276,0.276,0.724,0.276,1,0s0.276-0.724,0-1L10.45,9.468C11.147,8.483,12,7,12,7L11,6z"/>
</svg>
