<?xml version="1.0" encoding="utf-8"?>
<!-- Generator: Adobe Illustrator 27.4.1, SVG Export Plug-In . SVG Version: 6.00 Build 0)  -->
<svg version="1.1" id="FavoritesFolder" xmlns="http://www.w3.org/2000/svg" xmlns:xlink="http://www.w3.org/1999/xlink" x="0px"
	 y="0px" width="16px" height="16px" viewBox="0 0 16 16" enable-background="new 0 0 16 16" xml:space="preserve">
<path id="iconColor" fill="#837CFF" d="M14,4H8L7.213,2.427C7.083,2.165,6.815,2,6.523,2h-4.06C2.178,2,1.919,2.161,1.792,2.416
	L1.005,4C1.002,4.007,1,13,1,13c0,0.55,0.45,1,1,1h12c0.55,0,1-0.45,1-1V5C15,4.448,14.552,4,14,4z M14,13H2V6h4.856l0.27-0.485
	C7.302,5.197,7.637,5,8,5s0.698,0.197,0.874,0.515L9.144,6H14V13z M6.929,7.929L5,8.143l1.286,1.714L5.857,12L8,11.143L10.143,12
	L9.714,9.857L11,8.143L9.071,7.929L8,6L6.929,7.929z"/>
</svg>
