<?xml version="1.0" encoding="utf-8"?>
<!-- Generator: Adobe Illustrator 26.5.0, SVG Export Plug-In . SVG Version: 6.00 Build 0)  -->
<svg version="1.1" id="Library" xmlns="http://www.w3.org/2000/svg" xmlns:xlink="http://www.w3.org/1999/xlink" x="0px" y="0px"
	 width="16px" height="16px" viewBox="0 0 16 16" enable-background="new 0 0 16 16" xml:space="preserve">
<path id="iconColor" fill="#EBCF5D" d="M6.414,2H5l1-1h3l1,1h3c0.552,0,1,0.448,1,1v0.586l-2,2V5c0-1.103-0.897-2-2-2H7.414L6.414,2
	z M10,4.08H7L6,3H3L2,4v2h9V5.16C11,4.563,10.552,4.08,10,4.08z M15,4v8l-3,3H1V7h11L15,4z M12,8H2v6h10V8z M9,9H5v2h4V9z M9,12.5
	L9,12.5C9,12.225,8.775,12,8.5,12h-3C5.225,12,5,12.225,5,12.5l0,0C5,12.775,5.225,13,5.5,13h3C8.775,13,9,12.775,9,12.5z"/>
</svg>
