<?xml version="1.0" encoding="utf-8"?>
<!-- Generator: Adobe Illustrator 26.5.0, SVG Export Plug-In . SVG Version: 6.00 Build 0)  -->
<svg version="1.1" id="NumericType" xmlns="http://www.w3.org/2000/svg" xmlns:xlink="http://www.w3.org/1999/xlink" x="0px"
	 y="0px" width="16px" height="16px" viewBox="0 0 16 16" enable-background="new 0 0 16 16" xml:space="preserve">
<path id="iconColor" fill="#33A3FF" d="M8,1C4.134,1,1,4.134,1,8s3.134,7,7,7s7-3.134,7-7S11.866,1,8,1z M8,14c-3.309,0-6-2.691-6-6
	s2.691-6,6-6s6,2.691,6,6S11.309,14,8,14z M12,7V6h-2V4H9v2H7V4H6v2H4v1h2v2H4v1h2v2h1v-2h2v2h1v-2h2V9h-2V7H12z M9,9H7V7h2V9z"/>
</svg>
