<?xml version="1.0" encoding="utf-8"?>
<!-- Generator: Adobe Illustrator 26.5.0, SVG Export Plug-In . SVG Version: 6.00 Build 0)  -->
<svg version="1.1" id="PFDModel" xmlns="http://www.w3.org/2000/svg" xmlns:xlink="http://www.w3.org/1999/xlink" x="0px" y="0px"
	 width="16px" height="16px" viewBox="0 0 16 16" enable-background="new 0 0 16 16" xml:space="preserve">
<path id="iconColor" fill="#33A3FF" d="M11,7h3c0.55,0,1-0.45,1-1V3c0-0.55-0.45-1-1-1h-3c-0.55,0-1,0.45-1,1v1H6V3
	c0-0.55-0.45-1-1-1H2C1.45,2,1,2.45,1,3v3c0,0.55,0.45,1,1,1h1v3.5C3,11.328,3.672,12,4.5,12H10v1c0,0.55,0.45,1,1,1h3
	c0.55,0,1-0.45,1-1v-3c0-0.55-0.45-1-1-1h-3c-0.55,0-1,0.45-1,1v1H4.5C4.224,11,4,10.776,4,10.5V7h1c0.55,0,1-0.45,1-1V5h4v1
	C10,6.55,10.45,7,11,7z M11,3h3v3h-3V3z M11,10h3v3h-3V10z M5,6H2V3h3V6z"/>
</svg>
