<?xml version="1.0" encoding="utf-8"?>
<!-- Generator: Adobe Illustrator 26.5.0, SVG Export Plug-In . SVG Version: 6.00 Build 0)  -->
<svg version="1.1" id="ReadOnlyLibrary" xmlns="http://www.w3.org/2000/svg" xmlns:xlink="http://www.w3.org/1999/xlink" x="0px"
	 y="0px" width="16px" height="16px" viewBox="0 0 16 16" enable-background="new 0 0 16 16" xml:space="preserve">
<path id="iconColor" fill="#33A3FF" d="M8.5,12C8.775,12,9,12.225,9,12.5S8.775,13,8.5,13h-3C5.225,13,5,12.775,5,12.5
	S5.225,12,5.5,12H8.5z M7.414,3h0.621c0.11-0.765,0.478-1.442,1-1.965L9,1H6L5,2h1.414L7.414,3z M9,10c-0.737,0-1.375-0.405-1.722-1
	H5v2h4V10z M14,10h-2v4H2V8h5V7H1v8h11l3-3V9.722C14.705,9.894,14.366,10,14,10z M7,4.08L6,3H3L2,4v2h5V4.08z M15,4v4
	c0,0.55-0.45,1-1,1H9C8.45,9,8,8.55,8,8V4h1V3.5C9,2.125,10.125,1,11.5,1S14,2.125,14,3.5V4H15z M12,5.5C12,5.225,11.775,5,11.5,5
	S11,5.225,11,5.5v2C11,7.775,11.225,8,11.5,8S12,7.775,12,7.5V5.5z M13,3.5C13,2.673,12.327,2,11.5,2S10,2.673,10,3.5V4h3V3.5z"/>
</svg>
