<?xml version="1.0" encoding="utf-8"?>
<!-- Generator: Adobe Illustrator 27.4.1, SVG Export Plug-In . SVG Version: 6.00 Build 0)  -->
<svg version="1.1" id="SASFolders" xmlns="http://www.w3.org/2000/svg" xmlns:xlink="http://www.w3.org/1999/xlink" x="0px" y="0px"
	 width="16px" height="16px" viewBox="0 0 16 16" enable-background="new 0 0 16 16" xml:space="preserve">
<path id="iconColor" fill="#EBCF5D" d="M7,13v1H2c-0.55,0-1-0.45-1-1c0,0,0.002-8.993,0.005-9l0.787-1.584
	C1.919,2.161,2.178,2,2.463,2h4.06c0.292,0,0.56,0.165,0.691,0.427L8,4h5c0.552,0,1,0.448,1,1v1.269
	c-0.332-0.081-0.673-0.141-1-0.18V6H2v7H7z M11.5,7C9.567,7,8,7.448,8,8s1.567,1,3.5,1S15,8.552,15,8S13.433,7,11.5,7z M15,9.373V14
	c0,0.552-1.567,1-3.5,1S8,14.552,8,14V9.373C9.102,9.935,10.81,10,11.5,10S13.898,9.935,15,9.373z"/>
</svg>
