<?xml version="1.0" encoding="utf-8"?>
<!-- Generator: Adobe Illustrator 26.5.0, SVG Export Plug-In . SVG Version: 6.00 Build 0)  -->
<svg version="1.1" id="SASIndicator" xmlns="http://www.w3.org/2000/svg" xmlns:xlink="http://www.w3.org/1999/xlink" x="0px"
	 y="0px" width="16px" height="16px" viewBox="0 0 16 16" enable-background="new 0 0 16 16" xml:space="preserve">
<path id="iconColor" fill="#FFFFFF" d="M11.241,7.713c2.749,3.336,0.235,6.227-2.014,6.79c-2.594,0.649-4.94-0.701-5.64-2.764
	c0.902,1.47,3.522,1.789,4.948,0.893c1.619-1.017,2.153-2.803,0.959-4.251c0,0-1.764-2.123-1.765-2.124
	C7.42,5.881,7.53,5.369,7.906,5.059c0.373-0.308,0.88-0.31,1.191,0.06L11.241,7.713z M6.403,10.274l-0.007,0.005l0.464,0.561
	c0.311,0.37,0.817,0.367,1.191,0.059c0.376-0.31,0.486-0.822,0.177-1.198C8.228,9.7,8.155,9.611,8.041,9.475l0.004-0.004
	c-0.693-0.834-1.54-1.852-1.54-1.852c-1.194-1.449-0.66-3.235,0.959-4.251c1.426-0.896,4.046-0.578,4.948,0.894
	c-0.699-2.064-3.046-3.413-5.64-2.765c-2.25,0.562-4.764,3.453-2.014,6.79L6.403,10.274z M13.181,11.586l0.144,0.227H13.24
	l-0.134-0.223h-0.088v0.223h-0.076v-0.513h0.192c0.12,0,0.18,0.045,0.18,0.146C13.313,11.537,13.256,11.577,13.181,11.586z
	 M13.11,11.524c0.066,0,0.123-0.006,0.123-0.084c0-0.064-0.057-0.075-0.11-0.075h-0.105v0.159H13.11z M13.554,11.555
	c0,0.257-0.205,0.445-0.443,0.445c-0.241,0-0.446-0.187-0.446-0.445c0-0.256,0.205-0.444,0.446-0.444
	C13.35,11.111,13.554,11.299,13.554,11.555z M13.466,11.555c0-0.211-0.157-0.37-0.355-0.37c-0.201,0-0.357,0.158-0.357,0.37
	c0,0.214,0.156,0.372,0.357,0.372C13.308,11.927,13.466,11.769,13.466,11.555z"/>
</svg>
