<?xml version="1.0" encoding="utf-8"?>
<!-- Generator: Adobe Illustrator 26.5.0, SVG Export Plug-In . SVG Version: 6.00 Build 0)  -->
<svg version="1.1" id="SASProgramFile" xmlns="http://www.w3.org/2000/svg" xmlns:xlink="http://www.w3.org/1999/xlink" x="0px"
	 y="0px" width="16px" height="16px" viewBox="0 0 16 16" enable-background="new 0 0 16 16" xml:space="preserve">
<path id="iconColor" fill="#EBCF5D" d="M10.058,15H2c-0.55,0-1-0.45-1-1V2c0-0.55,0.45-1,1-1h12c0.55,0,1,0.45,1,1v8.058
	c-0.286-0.293-0.627-0.528-1-0.707V2H2v12h7.351C9.53,14.373,9.765,14.714,10.058,15z M9.625,6.056c0.621,0,1.125-0.684,1.125-1.528
	S10.246,3,9.625,3S8.5,3.684,8.5,4.528C8.5,5.371,9.004,6.056,9.625,6.056z M9.335,11.029c0.19-0.407,0.453-0.77,0.777-1.073
	C9.76,9.441,9.224,9.194,8.716,9.075c0.325-0.444,0.58-0.86,0.735-1.14c0.341,0.155,0.674,0.242,0.996,0.242
	c0.154,0,0.305-0.018,0.455-0.054c1.049-0.252,1.522-1.31,1.541-1.354c0.136-0.313,0.021-0.692-0.258-0.845
	c-0.275-0.149-0.615-0.025-0.753,0.29c-0.002,0.005-0.261,0.554-0.766,0.674c-0.47,0.107-1.071-0.163-1.744-0.792
	c-0.768-0.72-1.544-0.999-2.304-0.825c-1.242,0.284-1.903,1.698-1.93,1.758C4.545,7.339,4.654,7.72,4.93,7.879
	c0.276,0.16,0.614,0.039,0.757-0.273C5.692,7.598,6.134,6.671,6.842,6.51c0.191-0.047,0.393-0.023,0.605,0.055L6.835,9.398
	C6.563,9.606,6.286,9.74,6.02,9.74c-0.007,0-0.013,0-0.02,0C5.58,9.73,5.09,9.432,4.937,9.318c-0.135-0.099-0.3-0.133-0.457-0.084
	C4.325,9.281,4.194,9.399,4.122,9.561l-0.563,1.263c-0.138,0.312-0.026,0.691,0.252,0.847c0.081,0.046,0.167,0.067,0.252,0.067
	c0.205,0,0.404-0.128,0.503-0.349l0.305-0.686c0.301,0.148,0.694,0.289,1.105,0.3c0.609-0.004,1.178-0.333,1.685-0.77
	c0.435-0.015,1.26,0.047,1.562,0.496C9.282,10.815,9.317,10.918,9.335,11.029z M12.5,15c1.381,0,2.5-1.119,2.5-2.5
	S13.881,10,12.5,10S10,11.119,10,12.5S11.119,15,12.5,15z"/>
</svg>
