<?xml version="1.0" encoding="utf-8"?>
<!-- Generator: Adobe Illustrator 22.1.0, SVG Export Plug-In . SVG Version: 6.00 Build 0)  -->
<svg version="1.1" id="SASProgramFile" xmlns="http://www.w3.org/2000/svg" xmlns:xlink="http://www.w3.org/1999/xlink" x="0px"
	 y="0px" width="14px" height="14px" viewBox="0 0 14 14" enable-background="new 0 0 14 14" xml:space="preserve">
<rect id="svgToolTipPane" fill="none" width="14" height="14"/>
<path id="iconColor" fill="white" d="M9.058,14H1c-0.55,0-1-0.45-1-1V1c0-0.55,0.45-1,1-1h12c0.55,0,1,0.45,1,1v8.058
	c-0.286-0.293-0.627-0.528-1-0.707V1H1v12h7.351C8.53,13.373,8.765,13.714,9.058,14z M8.625,5.056c0.621,0,1.125-0.684,1.125-1.528
	C9.75,2.684,9.246,2,8.625,2S7.5,2.684,7.5,3.528C7.5,4.371,8.004,5.056,8.625,5.056z M8.335,10.029
	c0.19-0.407,0.453-0.77,0.777-1.073C8.76,8.441,8.224,8.194,7.716,8.075c0.325-0.444,0.58-0.86,0.735-1.14
	C8.792,7.09,9.125,7.177,9.447,7.177c0.154,0,0.305-0.018,0.455-0.054c1.049-0.252,1.522-1.31,1.541-1.354
	c0.136-0.313,0.021-0.692-0.258-0.845c-0.275-0.149-0.615-0.025-0.753,0.29c-0.002,0.005-0.261,0.554-0.766,0.674
	c-0.47,0.107-1.071-0.163-1.744-0.792c-0.768-0.72-1.544-0.999-2.304-0.825C4.376,4.555,3.715,5.969,3.688,6.029
	C3.545,6.339,3.654,6.72,3.93,6.879c0.276,0.16,0.614,0.039,0.757-0.273C4.692,6.598,5.134,5.671,5.842,5.51
	c0.191-0.047,0.393-0.023,0.605,0.055L5.835,8.398C5.563,8.606,5.286,8.74,5.02,8.74c-0.007,0-0.013,0-0.02,0
	C4.58,8.73,4.09,8.432,3.937,8.318c-0.135-0.099-0.3-0.133-0.457-0.084C3.325,8.281,3.194,8.399,3.122,8.561L2.559,9.824
	c-0.138,0.312-0.026,0.691,0.252,0.847c0.081,0.046,0.167,0.067,0.252,0.067c0.205,0,0.404-0.128,0.503-0.349l0.305-0.686
	c0.301,0.148,0.694,0.289,1.105,0.3c0.609-0.004,1.178-0.333,1.685-0.77c0.435-0.015,1.26,0.047,1.562,0.496
	C8.282,9.815,8.317,9.918,8.335,10.029z M11.5,14c1.381,0,2.5-1.119,2.5-2.5S12.881,9,11.5,9S9,10.119,9,11.5S10.119,14,11.5,14z"/>
</svg>
