<?xml version="1.0" encoding="utf-8"?>
<!-- Generator: Adobe Illustrator 26.3.1, SVG Export Plug-In . SVG Version: 6.00 Build 0)  -->
<svg version="1.1" id="SubmitSASCode" xmlns="http://www.w3.org/2000/svg" xmlns:xlink="http://www.w3.org/1999/xlink" x="0px"
	 y="0px" width="16px" height="16px" viewBox="0 0 16 16" enable-background="new 0 0 16 16" xml:space="preserve">
<path id="VS_BG" fill="#c5c5c5" d="M9.943,7.553L8.886,9.031c1.078,0.303,1.798,0.852,2.174,1.659
	c0.406,0.87,0.281,1.805,0.031,2.561h0.811c0.518,0,0.942,0.394,0.942,0.875S12.422,15,11.904,15h-1.885
	c-0.518,0-0.942-0.394-0.942-0.875c0-0.12,0.027-0.234,0.074-0.339c0,0,0.795-1.622,0.464-2.327c-0.219-0.464-0.933-0.77-1.979-0.9
	c0,0-1.07,1.933-1.714,2.36c-0.909,0.601-2.014,0.49-2.858,0.26l-0.306,0.492c-0.259,0.417-0.838,0.561-1.287,0.32
	s-0.604-0.778-0.345-1.195l0.845-1.359c0.259-0.417,0.838-0.561,1.287-0.32c0.188,0.101,0.696,1.002,1.816,0.329
	c0.235-0.141,0.383-0.434,0.48-0.818l0.731-4.07C4.437,7.012,3.743,8.467,3.711,8.54C3.583,8.824,3.261,9,2.919,9
	c-0.096,0-0.194-0.014-0.29-0.044C2.193,8.822,1.97,8.42,2.128,8.055C2.182,7.93,3.498,5,7.415,5c1.71,0,2.733,0.792,3.48,1.37
	c0.983,0.763,1.248,0.966,2.667-0.222c0.329-0.276,0.863-0.276,1.192,0c0.329,0.276,0.329,0.723,0,0.999
	C12.503,9.033,11.173,8.468,9.943,7.553z M9.625,5.25c0.897,0,1.625-0.951,1.625-2.125S10.522,1,9.625,1S8,1.951,8,3.125
	S8.728,5.25,9.625,5.25z"/>
</svg>
