<?xml version="1.0" encoding="utf-8"?>
<!-- Generator: Adobe Illustrator 27.4.1, SVG Export Plug-In . SVG Version: 6.00 Build 0)  -->
<svg version="1.1" id="TableHeaderDate" xmlns="http://www.w3.org/2000/svg" xmlns:xlink="http://www.w3.org/1999/xlink" x="0px"
	 y="0px" width="14px" height="14px" viewBox="0 0 14 14" enable-background="new 0 0 14 14" xml:space="preserve">
<path id="iconColor" fill="#837CFF" d="M8,10H7c0,0-0.001-2.94,0-3C6.991,7.011,6.225,7.67,6.225,7.67L5.701,7.026L7,6h1V10z M12,2
	c0-0.552-0.448-1-1-1s-1,0.448-1,1H4c0-0.552-0.448-1-1-1S2,1.448,2,2C1.448,2,1,2.448,1,3v9c0,0.552,0.448,1,1,1h10
	c0.552,0,1-0.448,1-1V3C13,2.448,12.552,2,12,2z M12,12H2V4h10V12z"/>
</svg>
