<?xml version="1.0" encoding="utf-8"?>
<!-- Generator: Adobe Illustrator 27.4.1, SVG Export Plug-In . SVG Version: 6.00 Build 0)  -->
<svg version="1.1" id="TableHeaderNumericType" xmlns="http://www.w3.org/2000/svg" xmlns:xlink="http://www.w3.org/1999/xlink"
	 x="0px" y="0px" width="14px" height="14px" viewBox="0 0 14 14" enable-background="new 0 0 14 14" xml:space="preserve">
<path id="iconColor" fill="#33A3FF" d="M10,6V5H9V4H8v1H6V4H5v1H4v1h1v2H4v1h1v1h1V9h2v1h1V9h1V8H9V6H10z M8,8H6V6h2V8z M7,1
	C3.686,1,1,3.686,1,7s2.686,6,6,6s6-2.686,6-6S10.314,1,7,1z M7,12c-2.757,0-5-2.243-5-5s2.243-5,5-5s5,2.243,5,5S9.757,12,7,12z"/>
</svg>
