<?xml version="1.0" encoding="utf-8"?>
<!-- Generator: Adobe Illustrator 27.4.1, SVG Export Plug-In . SVG Version: 6.00 Build 0)  -->
<svg version="1.1" id="TableHeaderCharacterType" xmlns="http://www.w3.org/2000/svg" xmlns:xlink="http://www.w3.org/1999/xlink"
	 x="0px" y="0px" width="14px" height="14px" viewBox="0 0 14 14" enable-background="new 0 0 14 14" xml:space="preserve">
<path id="iconColor" fill="#EB8C4A" d="M12.93,10.094L7.475,1.301c-0.193-0.344-0.757-0.344-0.95,0L1.07,10.043
	c-0.076,0.134-0.091,0.294-0.042,0.439c0.048,0.146,0.156,0.265,0.296,0.328l5.455,2.186c0.07,0.032,0.146,0.047,0.221,0.047
	s0.151-0.015,0.221-0.047l5.455-2.134c0.14-0.062,0.248-0.181,0.296-0.328C13.021,10.388,13.005,10.228,12.93,10.094z M7.001,12.008
	l-4.783-1.917l4.781-7.662l4.782,7.71L7.001,12.008z M8.09,8.518H5.873l-0.584,1.524H4.5l2.059-4.999h0.872l2.06,4.999H8.665
	L8.09,8.518z M7.895,8.007c0,0-0.801-2.157-0.9-2.447H6.958c-0.093,0.29-0.89,2.447-0.89,2.447H7.895z"/>
</svg>
