<?xml version="1.0" encoding="utf-8"?>
<!-- Generator: Adobe Illustrator 27.4.1, SVG Export Plug-In . SVG Version: 6.00 Build 0)  -->
<svg version="1.1" id="TableHeaderCurrency" xmlns="http://www.w3.org/2000/svg" xmlns:xlink="http://www.w3.org/1999/xlink"
	 x="0px" y="0px" width="14px" height="14px" viewBox="0 0 14 14" enable-background="new 0 0 14 14" xml:space="preserve">
<path id="iconColor" fill="#36D7E3" d="M8.5,9.045c0,1.105-0.672,2-1.5,2s-1.5-0.895-1.5-2s0.672-2,1.5-2S8.5,7.941,8.5,9.045z
	 M4,7.045H3v1h1V7.045z M4,10.045H3v1h1V10.045z M11,7.045h-1v1h1V7.045z M11,10.045h-1v1h1V10.045z M13,6.045v6
	c0,0.553-0.447,1-1,1H2c-0.553,0-1-0.447-1-1v-6c0-0.443,0.292-0.806,0.691-0.938L1.507,4.489C1.364,4.005,1.651,3.501,2.15,3.362
	l8.118-2.267c0.499-0.139,1.018,0.14,1.162,0.624l1.021,3.447h0C12.773,5.331,13,5.657,13,6.045z M2.495,4.303l0.22,0.742h8.673
	l-0.851-2.988L2.495,4.303z M12,6.045H2v6h10V6.045z M9.877,2.947L8.902,3.168l0.221,0.975l0.975-0.221L9.877,2.947z"/>
</svg>
