<?xml version="1.0" encoding="utf-8"?>
<!-- Generator: Adobe Illustrator 26.5.0, SVG Export Plug-In . SVG Version: 6.00 Build 0)  -->
<svg version="1.1" id="TaskContainer" xmlns="http://www.w3.org/2000/svg" xmlns:xlink="http://www.w3.org/1999/xlink" x="0px"
	 y="0px" width="16px" height="16px" viewBox="0 0 16 16" enable-background="new 0 0 16 16" xml:space="preserve">
<path id="iconColor" fill="#837CFF" d="M11,7H9V5h2V7z M11,13H9v2h2V13z M7,9H5v2h2V9z M6.555,8H8V6.555
	C7.4,6.904,6.904,7.4,6.555,8z M8,13.445V12H6.555C6.904,12.6,7.4,13.096,8,13.445z M12,12v1.445c0.6-0.349,1.096-0.845,1.445-1.445
	H12z M12,6.555V8h1.445C13.096,7.4,12.6,6.904,12,6.555z M12,8v4H8V8H12z M11,10c0-0.551-0.449-1-1-1s-1,0.449-1,1s0.449,1,1,1
	S11,10.551,11,10z M15,9h-2v2h2V9z M4,12H2V2h10v2h1V2c0-0.55-0.45-1-1-1H2C1.45,1,1,1.45,1,2v10c0,0.55,0.45,1,1,1h2V12z"/>
</svg>
