<?xml version="1.0" encoding="UTF-8"?>
<svg id="UserWorkspace" xmlns="http://www.w3.org/2000/svg" width="16" height="16" viewBox="0 0 16 16">
  <path d="M2,11V2h11v3.059c.374.088.709.279,1,.538v-3.597c0-.552-.448-1-1-1H2c-.552,0-1,.448-1,1v9c0,.552.448,1,1,1h7c0-.35.08-.68.196-1H2ZM14.754,11.039c.164.297.246.617.246.961l-.419,2.546c-.024.257-.24.454-.498.454h-3.095c-.255,0-.47-.192-.497-.446l-.491-2.554c0-.344.083-.664.25-.961s.391-.536.672-.719c.453.453.979.68,1.578.68.594,0,1.122-.227,1.586-.68.281.183.504.422.668.719ZM14,8c0,1.105-.672,2-1.5,2s-1.5-.895-1.5-2,.672-2,1.5-2,1.5.895,1.5,2Z" fill="#36d7e3" stroke-width="0"/>
</svg>