<?xml version="1.0" encoding="utf-8"?>
<!-- Generator: Adobe Illustrator 26.5.0, SVG Export Plug-In . SVG Version: 6.00 Build 0)  -->
<svg version="1.1" id="VennDiagramAnd" xmlns="http://www.w3.org/2000/svg" xmlns:xlink="http://www.w3.org/1999/xlink" x="0px"
	 y="0px" width="16px" height="16px" viewBox="0 0 16 16" enable-background="new 0 0 16 16" xml:space="preserve">
<path id="iconColor" fill="#33A3FF" d="M10,8c0,1.474-0.809,2.752-2,3.444C6.809,10.752,6,9.474,6,8s0.809-2.752,2-3.444
	C9.191,5.248,10,6.526,10,8z M7.247,12.742c-0.368-0.214-0.699-0.473-1.002-0.758C6.164,11.99,6.083,12,6,12c-2.206,0-4-1.794-4-4
	s1.794-4,4-4c0.083,0,0.164,0.01,0.245,0.016c0.303-0.285,0.634-0.544,1.002-0.758C7.289,3.234,7.336,3.223,7.38,3.203
	C6.942,3.075,6.48,3,6,3C3.239,3,1,5.239,1,8s2.239,5,5,5c0.48,0,0.942-0.075,1.38-0.203C7.336,12.777,7.289,12.766,7.247,12.742z
	 M10,3C9.52,3,9.058,3.075,8.62,3.203c0.044,0.02,0.091,0.031,0.133,0.055c0.368,0.214,0.699,0.473,1.002,0.758
	C9.836,4.01,9.917,4,10,4c2.206,0,4,1.794,4,4s-1.794,4-4,4c-0.083,0-0.164-0.01-0.245-0.016c-0.303,0.285-0.634,0.544-1.002,0.758
	c-0.042,0.025-0.089,0.035-0.133,0.055C9.058,12.925,9.52,13,10,13c2.761,0,5-2.239,5-5S12.761,3,10,3z"/>
</svg>
