<?xml version="1.0" encoding="utf-8"?>
<!-- Generator: Adobe Illustrator 26.5.0, SVG Export Plug-In . SVG Version: 6.00 Build 0)  -->
<svg version="1.1" id="CharacterType" xmlns="http://www.w3.org/2000/svg" xmlns:xlink="http://www.w3.org/1999/xlink" x="0px"
	 y="0px" width="16px" height="16px" viewBox="0 0 16 16" enable-background="new 0 0 16 16" xml:space="preserve">
<path id="iconColor" fill="#FF8224" d="M8,2.744l5.552,7.932L8,13.848l-5.552-3.172L8,2.744 M8,1L1,11l7,4l7-4L8,1L8,1z
	 M9.455,11.234L9.041,9.875H6.959l-0.414,1.359H5.24L7.256,5.5h1.48l2.023,5.734H9.455z M8.752,8.859
	C8.369,7.627,8.153,6.931,8.105,6.77C8.057,6.609,8.022,6.48,8.002,6.387C7.916,6.72,7.67,7.544,7.264,8.859H8.752z"/>
</svg>
