<?xml version="1.0" encoding="utf-8"?>
<!-- Generator: Adobe Illustrator 26.5.0, SVG Export Plug-In . SVG Version: 6.00 Build 0)  -->
<svg version="1.1" id="Currency" xmlns="http://www.w3.org/2000/svg" xmlns:xlink="http://www.w3.org/1999/xlink" x="0px" y="0px"
	 width="16px" height="16px" viewBox="0 0 16 16" enable-background="new 0 0 16 16" xml:space="preserve">
<path id="iconColor" fill="#2AD1D1" d="M14.054,6h-10c-0.552,0-1,0.448-1,1v6c0,0.552,0.448,1,1,1h10c0.552,0,1-0.448,1-1V7
	C15.054,6.448,14.606,6,14.054,6z M14.054,13h-10V7h10V13z M7.554,10c0-1.105,0.672-2,1.5-2s1.5,0.895,1.5,2s-0.672,2-1.5,2
	S7.554,11.105,7.554,10z M13.054,9h-1V8h1V9z M13.054,12h-1v-1h1V12z M6.054,9h-1V8h1V9z M6.054,12h-1v-1h1V12z M10.045,3.476
	l0.967-0.254l0.254,0.967l-0.967,0.254L10.045,3.476z M8.74,5H6.306c0.176-0.379,0.463-0.663,0.838-0.761
	C7.721,4.087,8.335,4.41,8.74,5z M2.054,4.543l0.35,1.33C2.183,6.194,2.054,6.582,2.054,7v1.475L1.087,4.797
	C0.946,4.263,1.266,3.716,1.8,3.576l9.671-2.542c0.534-0.14,1.081,0.179,1.221,0.713L13.548,5h-1.034l-0.789-3L2.054,4.543z"/>
</svg>
