<?xml version="1.0" encoding="utf-8"?>
<!-- Generator: Adobe Illustrator 26.5.0, SVG Export Plug-In . SVG Version: 6.00 Build 0)  -->
<svg version="1.1" id="Date" xmlns="http://www.w3.org/2000/svg" xmlns:xlink="http://www.w3.org/1999/xlink" x="0px" y="0px"
	 width="16px" height="16px" viewBox="0 0 16 16" enable-background="new 0 0 16 16" xml:space="preserve">
<path id="iconColor" fill="#9471FF" d="M13,3V2c0-0.553-0.448-1-1-1s-1,0.447-1,1v1H5V2c0-0.553-0.448-1-1-1S3,1.447,3,2v1H2
	C1.448,3,1,3.448,1,4v10c0,0.552,0.448,1,1,1h12c0.552,0,1-0.448,1-1V4c0-0.552-0.448-1-1-1H13z M14,14H2V6h12V14z M9,12h3V9H9V12z"
	/>
</svg>
