<?xml version="1.0" encoding="utf-8"?>
<!-- Generator: Adobe Illustrator 27.4.1, SVG Export Plug-In . SVG Version: 6.00 Build 0)  -->
<svg version="1.1" id="Delete" xmlns="http://www.w3.org/2000/svg" xmlns:xlink="http://www.w3.org/1999/xlink" x="0px" y="0px"
	 width="16px" height="16px" viewBox="0 0 16 16" enable-background="new 0 0 16 16" xml:space="preserve">
<path id="iconColor" fill="#FF8224" d="M13.5,3H11V1H5v2H2.5C2.225,3,2,3.225,2,3.5S2.225,4,2.5,4h11C13.775,4,14,3.775,14,3.5
	S13.775,3,13.5,3z M10,3H6V2h4V3z M3,14c0,0.552,0.448,1,1,1h8c0.552,0,1-0.448,1-1V5H3V14z M4,6h8v8H4V6z M10,7.5v5
	c0,0.275-0.225,0.5-0.5,0.5S9,12.775,9,12.5v-5C9,7.225,9.225,7,9.5,7S10,7.225,10,7.5z M7,7.5v5C7,12.775,6.775,13,6.5,13
	S6,12.775,6,12.5v-5C6,7.225,6.225,7,6.5,7S7,7.225,7,7.5z"/>
</svg>
