<?xml version="1.0" encoding="utf-8"?>
<!-- Generator: Adobe Illustrator 22.1.0, SVG Export Plug-In . SVG Version: 6.00 Build 0)  -->
<svg version="1.1" id="Disconnect" xmlns="http://www.w3.org/2000/svg" xmlns:xlink="http://www.w3.org/1999/xlink" x="0px" y="0px"
	 width="14px" height="14px" viewBox="0 0 14 14" enable-background="new 0 0 14 14" xml:space="preserve">
<rect id="svgToolTipPane" x="0" fill="none" width="14" height="14"/>
<path id="iconColor" d="M5.942,2.406l1.366,1.366L3.773,7.308l0,0L2.406,5.942C2.547,5.728,5.728,2.547,5.942,2.406 M0.75,0
	C0.558,0,0.366,0.073,0.22,0.22c-0.293,0.293-0.293,0.768,0,1.061l1.975,1.975C2.174,3.335,2.146,3.415,2.146,3.5
	c0,0.268,0.105,0.518,0.293,0.706c0.013,0.013,0.031,0.018,0.045,0.03c-0.832,0.939-1.408,1.79-1.186,2.012l1.768,1.767L2.005,9.076
	c-0.195,0.195-0.195,0.512,0,0.707C2.103,9.881,2.23,9.93,2.358,9.93s0.256-0.049,0.353-0.146l7.071-7.071
	c0.195-0.195,0.195-0.512,0-0.707C9.686,1.907,9.558,1.858,9.43,1.858S9.174,1.907,9.076,2.005L8.016,3.065L6.248,1.298
	C6.215,1.265,6.169,1.25,6.112,1.25c-0.337,0-1.074,0.523-1.875,1.232C4.225,2.469,4.22,2.451,4.207,2.438
	C4.023,2.255,3.774,2.169,3.522,2.169c-0.088,0-0.176,0.01-0.262,0.031L1.28,0.22C1.134,0.073,0.942,0,0.75,0L0.75,0z M10.292,6.757
	l1.366,1.367c-0.141,0.214-3.321,3.395-3.535,3.535l-1.366-1.366l0,0L10.292,6.757 M11.706,4.136c-0.128,0-0.256,0.049-0.354,0.146
	l-7.07,7.071c-0.195,0.195-0.195,0.512,0,0.707c0.098,0.098,0.226,0.146,0.353,0.146s0.256-0.049,0.354-0.146L6.05,11l1.768,1.767
	c0.033,0.033,0.079,0.048,0.136,0.048c0.337,0,1.074-0.523,1.874-1.232c0.184,0.168,0.417,0.267,0.668,0.267
	c0.085,0,0.164-0.028,0.245-0.048l1.979,1.978c0.146,0.146,0.338,0.22,0.53,0.22c0.192,0,0.384-0.073,0.53-0.22
	c0.293-0.293,0.293-0.768,0-1.061l-1.979-1.979c0.08-0.316,0.013-0.657-0.219-0.912c0.831-0.938,1.406-1.789,1.184-2.011
	L10.999,6.05l1.06-1.061c0.195-0.195,0.195-0.512,0-0.707C11.962,4.185,11.834,4.136,11.706,4.136L11.706,4.136z"/>
</svg>
