<?xml version="1.0" encoding="utf-8"?>
<!-- Generator: Adobe Illustrator 26.5.0, SVG Export Plug-In . SVG Version: 6.00 Build 0)  -->
<svg version="1.1" id="FlowStep" xmlns="http://www.w3.org/2000/svg" xmlns:xlink="http://www.w3.org/1999/xlink" x="0px" y="0px"
	 width="16px" height="16px" viewBox="0 0 16 16" enable-background="new 0 0 16 16" xml:space="preserve">
<path id="iconColor" fill="#2AD1D1" d="M8,5C6.343,5,5,6.343,5,8s1.343,3,3,3s3-1.343,3-3S9.657,5,8,5z M8,10c-1.104,0-2-0.895-2-2s0.896-2,2-2
	s2,0.895,2,2S9.104,10,8,10z M3,9H1V7h2V9z M13.191,11c-1.038,1.792-2.972,3-5.191,3s-4.153-1.208-5.191-3h1.213
	C4.935,12.208,6.37,13,8,13s3.065-0.792,3.977-2H13.191z M2.809,5C3.847,3.208,5.781,2,8,2s4.153,1.208,5.191,3h-1.213
	C11.065,3.792,9.63,3,8,3S4.935,3.792,4.023,5H2.809z M15,9h-2V7h2V9z"/>
</svg>
