<?xml version="1.0" encoding="utf-8"?>
<!-- Generator: Adobe Illustrator 26.5.0, SVG Export Plug-In . SVG Version: 6.00 Build 0)  -->
<svg version="1.1" id="JobTemplate" xmlns="http://www.w3.org/2000/svg" xmlns:xlink="http://www.w3.org/1999/xlink" x="0px"
	 y="0px" width="16px" height="16px" viewBox="0 0 16 16" enable-background="new 0 0 16 16" xml:space="preserve">
<path id="iconColor" fill="#FF8224" d="M6,9H5V7h1V9z M5,4v2h1V5h1V4H5z M8,4v1h1v1h1V4H8z M13.088,11.571
	c-0.081,0.442-0.253,0.853-0.5,1.208l0.644,0.645l-0.809,0.809l-0.643-0.645c-0.357,0.246-0.767,0.419-1.209,0.5V15H9.429v-0.912
	c-0.442-0.081-0.853-0.254-1.209-0.5l-0.643,0.645l-0.809-0.809l0.645-0.645c-0.247-0.355-0.419-0.766-0.5-1.208H6v-1.142h0.912
	c0.081-0.442,0.253-0.852,0.5-1.208L6.768,8.576l0.809-0.809L8.22,8.412c0.357-0.246,0.767-0.419,1.209-0.5V7h1.143v0.912
	c0.442,0.081,0.852,0.254,1.209,0.5l0.643-0.645l0.809,0.809L12.589,9.22c0.247,0.356,0.419,0.766,0.5,1.208H14v1.143H13.088z
	 M11,11c0-0.553-0.447-1-1-1c-0.553,0-1,0.447-1,1c0,0.553,0.447,1,1,1S11,11.553,11,11z M5,13H3V2h6.586L12,4.414V6h1V4.414
	c0-0.265-0.105-0.52-0.293-0.707l-2.414-2.414C10.105,1.105,9.851,1,9.586,1H3C2.448,1,2,1.448,2,2v11c0,0.552,0.448,1,1,1h2V13z"/>
</svg>
