<?xml version="1.0" encoding="utf-8"?>
<!-- Generator: Adobe Illustrator 26.5.0, SVG Export Plug-In . SVG Version: 6.00 Build 0)  -->
<svg version="1.1" id="SASDataSet" xmlns="http://www.w3.org/2000/svg" xmlns:xlink="http://www.w3.org/1999/xlink" x="0px" y="0px"
	 width="16px" height="16px" viewBox="0 0 16 16" enable-background="new 0 0 16 16" xml:space="preserve">
<path id="iconColor" fill="#FFCC32" d="M9,5H7V4h2V5z M13,4h-2v1h2V4z M11,9h2V8h-2V9z M5,4H3v1h2V4z M5,13v-1H3v1H5z M5,9V8H3v1H5z
	 M15,2v8.056c-0.286-0.293-0.626-0.528-1-0.706V7H2v3h8.056c-0.293,0.286-0.528,0.626-0.706,1H2v3h7.35
	c0.178,0.374,0.413,0.714,0.706,1H2c-0.55,0-1-0.45-1-1V2c0-0.55,0.45-1,1-1h12C14.55,1,15,1.45,15,2z M14,3H2v3h12V3z M9,13v-1H7v1
	H9z M9,9V8H7v1H9z M12.5,15c1.381,0,2.5-1.119,2.5-2.5S13.881,10,12.5,10S10,11.119,10,12.5S11.119,15,12.5,15z"/>
</svg>
