<?xml version="1.0" encoding="utf-8"?>
<!-- Generator: Adobe Illustrator 26.5.0, SVG Export Plug-In . SVG Version: 6.00 Build 0)  -->
<svg version="1.1" id="SASProgramFile" xmlns="http://www.w3.org/2000/svg" xmlns:xlink="http://www.w3.org/1999/xlink" x="0px"
	 y="0px" width="16px" height="16px" viewBox="0 0 16 16" enable-background="new 0 0 16 16" xml:space="preserve">
<path id="iconColor" fill="#FFCC32" d="M9.058,14H1c-0.55,0-1-0.45-1-1V1c0-0.55,0.45-1,1-1h12c0.55,0,1,0.45,1,1v8.058
	c-0.286-0.293-0.627-0.528-1-0.707V1H1v12h7.351C8.53,13.373,8.765,13.714,9.058,14z M11.5,14c1.381,0,2.5-1.119,2.5-2.5
	S12.881,9,11.5,9S9,10.119,9,11.5S10.119,14,11.5,14z M9.261,8.83c0.321-0.269,0.686-0.481,1.09-0.622
	c-0.006-0.005-0.01-0.011-0.017-0.016C9.704,7.786,8.842,7.623,7.977,7.63l0.981-0.981C9.25,6.852,9.575,7,9.972,7
	c0.585,0,1.189-0.263,1.843-0.805c0.103-0.085,0.168-0.207,0.183-0.343c0.014-0.136-0.023-0.27-0.106-0.376
	c-0.171-0.22-0.482-0.254-0.695-0.08C9.991,6.392,9.57,5.845,8.714,5.115C7.646,4.202,6.223,3.177,3.596,5.583
	C3.496,5.673,3.438,5.799,3.429,5.935c-0.008,0.137,0.036,0.268,0.124,0.37C3.64,6.407,3.76,6.468,3.892,6.476
	c0.129,0.012,0.26-0.037,0.359-0.127c1.37-1.254,2.204-1.377,2.91-1.067l-1.6,3.467L5.07,9.397L3.617,8.482
	C3.404,8.35,3.12,8.392,2.957,8.584L2.118,9.581C2.031,9.683,1.99,9.814,2.002,9.947c0.012,0.135,0.076,0.256,0.181,0.342
	c0.215,0.176,0.534,0.146,0.713-0.064L3.45,9.567l1.472,0.927c0.081,0.05,0.175,0.078,0.271,0.078c0.161,0,0.308-0.073,0.405-0.2
	l1.19-1.569C7.567,8.626,8.525,8.589,9.261,8.83z M9.5,4.857c0.592,0,1.071-0.64,1.071-1.429C10.571,2.64,10.092,2,9.5,2
	S8.429,2.64,8.429,3.429C8.429,4.218,8.908,4.857,9.5,4.857z"/>
</svg>
