<?xml version="1.0" encoding="utf-8"?>
<!-- Generator: Adobe Illustrator 27.9.0, SVG Export Plug-In . SVG Version: 6.00 Build 0)  -->
<svg version="1.1" id="Server" xmlns="http://www.w3.org/2000/svg" xmlns:xlink="http://www.w3.org/1999/xlink" x="0px" y="0px"
	 width="14px" height="14px" viewBox="0 0 14 14" enable-background="new 0 0 14 14" xml:space="preserve">
<path fill="#33A3FF" d="M4,3h6v1H4V3z M4,6h6V5H4V6z M4,8h6V7H4V8z M7,11h1v-1H7V11z M9,11h1v-1H9V11z M4,11h2v-1H4V11z M13,13.5
	c0,0.276-0.224,0.5-0.5,0.5h-11C1.224,14,1,13.776,1,13.5S1.224,13,1.5,13H2V1c0-0.552,0.448-1,1-1h8c0.552,0,1,0.448,1,1v12h0.5
	C12.776,13,13,13.224,13,13.5z M11,13V1H3v12H11z"/>
</svg>
