<?xml version="1.0" encoding="utf-8"?>
<!-- Generator: Adobe Illustrator 22.1.0, SVG Export Plug-In . SVG Version: 6.00 Build 0)  -->
<svg version="1.1" id="SubmitSASCode" xmlns="http://www.w3.org/2000/svg" xmlns:xlink="http://www.w3.org/1999/xlink" x="0px"
	 y="0px" width="14px" height="14px" viewBox="0 0 14 14" enable-background="new 0 0 14 14" xml:space="preserve">
<rect id="svgToolTipPane" fill="none" width="14" height="14"/>
<path id="iconColor" d="M8.943,6.553L7.886,8.031c1.078,0.303,1.798,0.852,2.174,1.659c0.406,0.87,0.281,1.805,0.031,2.561h0.811
	c0.518,0,0.942,0.394,0.942,0.875S11.422,14,10.904,14H9.019c-0.518,0-0.942-0.394-0.942-0.875c0-0.12,0.027-0.234,0.074-0.339
	c0,0,0.795-1.622,0.464-2.327C8.396,9.995,7.682,9.689,6.636,9.559c0,0-1.07,1.933-1.714,2.36c-0.909,0.601-2.014,0.49-2.858,0.26
	l-0.306,0.492c-0.259,0.417-0.838,0.561-1.287,0.32c-0.449-0.241-0.604-0.778-0.345-1.195l0.845-1.359
	c0.259-0.417,0.838-0.561,1.287-0.32c0.188,0.101,0.696,1.002,1.816,0.329c0.235-0.141,0.383-0.434,0.48-0.818l0.731-4.07
	C3.437,6.012,2.743,7.467,2.711,7.54C2.583,7.824,2.261,8,1.919,8C1.823,8,1.725,7.986,1.629,7.956
	C1.193,7.822,0.97,7.42,1.128,7.055C1.182,6.93,2.498,4,6.415,4c1.71,0,2.733,0.792,3.48,1.37c0.983,0.763,1.248,0.966,2.667-0.222
	c0.329-0.276,0.863-0.276,1.192,0c0.329,0.276,0.329,0.723,0,0.999C11.503,8.033,10.173,7.468,8.943,6.553z M8.625,4.25
	c0.897,0,1.625-0.951,1.625-2.125C10.25,0.951,9.522,0,8.625,0S7,0.951,7,2.125C7,3.299,7.728,4.25,8.625,4.25z"/>
</svg>
