<?xml version="1.0" encoding="utf-8"?>
<!-- Generator: Adobe Illustrator 26.3.1, SVG Export Plug-In . SVG Version: 6.00 Build 0)  -->
<svg version="1.1" id="SubmitSASCode" xmlns="http://www.w3.org/2000/svg" xmlns:xlink="http://www.w3.org/1999/xlink" x="0px"
	 y="0px" width="16px" height="16px" viewBox="0 0 16 16" enable-background="new 0 0 16 16" xml:space="preserve">
<path id="VS_BG" fill="#424242" d="M9.742,6.508L8.368,7.882C9.579,7.873,10.785,8.1,11.669,8.67c0.305,0.197,0.415,0.572,0.263,0.892
	c-0.578,1.208-1.234,2.072-1.715,2.609l0.899,0.484c0.175,0.094,0.302,0.249,0.356,0.435c0.054,0.185,0.029,0.378-0.07,0.544
	C11.27,13.86,11.018,14,10.747,14c-0.128,0-0.255-0.033-0.368-0.094l-1.748-0.94c-0.216-0.116-0.358-0.325-0.381-0.562
	c-0.021-0.238,0.081-0.468,0.271-0.618c0.094-0.077,0.93-0.79,1.724-2.206C9.213,9.217,7.827,9.262,6.713,9.51l-1.676,2.21
	C4.902,11.898,4.695,12,4.47,12c-0.134,0-0.266-0.038-0.379-0.109l-2.061-1.297l-0.775,0.922c-0.251,0.295-0.697,0.336-0.998,0.09
	c-0.147-0.121-0.237-0.291-0.253-0.479c-0.017-0.187,0.041-0.369,0.162-0.513L1.34,9.218c0.229-0.27,0.626-0.329,0.925-0.143
	l2.033,1.28l0.687-0.907L7.232,4.58C6.243,4.146,5.071,4.331,3.151,6.089C3.013,6.214,2.829,6.284,2.648,6.267
	C2.464,6.255,2.296,6.17,2.174,6.027C2.052,5.883,1.99,5.7,2.001,5.508c0.012-0.19,0.094-0.366,0.233-0.493
	c3.678-3.367,5.671-1.933,7.165-0.655c1.199,1.022,1.788,1.789,3.475,0.393c0.298-0.244,0.735-0.196,0.974,0.112
	c0.115,0.149,0.167,0.336,0.148,0.527c-0.021,0.19-0.112,0.361-0.256,0.48C12.824,6.631,11.979,7,11.16,7
	C10.605,7,10.15,6.793,9.742,6.508z M10.5,4C11.329,4,12,3.104,12,2s-0.671-2-1.5-2C9.671,0,9,0.896,9,2S9.671,4,10.5,4z"/>
</svg>
