<?xml version="1.0" encoding="utf-8"?>
<!-- Generator: Adobe Illustrator 26.5.0, SVG Export Plug-In . SVG Version: 6.00 Build 0)  -->
<svg version="1.1" id="Task" xmlns="http://www.w3.org/2000/svg" xmlns:xlink="http://www.w3.org/1999/xlink" x="0px" y="0px"
	 width="16px" height="16px" viewBox="0 0 16 16" enable-background="new 0 0 16 16" xml:space="preserve">
<path id="iconColor" fill="#FFCC32" d="M9,3H7V1h2V3z M9,13H7v2h2V13z M13,9h2V7h-2V9z M10,3.424
	C11.149,3.928,12.072,4.851,12.576,6h1.075C13.049,4.298,11.702,2.951,10,2.349V3.424z M8,12c-2.206,0-4-1.794-4-4s1.794-4,4-4
	s4,1.794,4,4S10.206,12,8,12z M11,8c0-1.654-1.346-3-3-3S5,6.346,5,8s1.346,3,3,3S11,9.654,11,8z M3.424,6
	C3.928,4.851,4.851,3.928,6,3.424V2.349C4.298,2.951,2.951,4.298,2.349,6H3.424z M12.576,10c-0.504,1.149-1.427,2.072-2.576,2.576
	v1.075c1.702-0.603,3.049-1.949,3.651-3.651H12.576z M6,12.576C4.851,12.072,3.928,11.149,3.424,10H2.349
	C2.951,11.702,4.298,13.049,6,13.651V12.576z M3,7H1v2h2V7z"/>
</svg>
