<?xml version="1.0" encoding="utf-8"?>
<!-- Generator: Adobe Illustrator 26.5.0, SVG Export Plug-In . SVG Version: 6.00 Build 0)  -->
<svg version="1.1" id="WorkLibrary" xmlns="http://www.w3.org/2000/svg" xmlns:xlink="http://www.w3.org/1999/xlink" x="0px"
	 y="0px" width="16px" height="16px" viewBox="0 0 16 16" enable-background="new 0 0 16 16" xml:space="preserve">
<path id="iconColor" fill="#33A3FF" d="M13,10V5l-3,2H3v5h7L13,10z M4,11V8h6v3H4z M6,9h2v1H6V9z M10,6H4V4h3v1h2
	C9.552,5,10,5.448,10,6z M9,3v1H8c0-0.552-0.447-1-1-1H9z M9,4h2c0.552,0,1,0.448,1,1h-1.278C10.375,4.405,9.737,4,9,4z M2,5H1V3h1
	V5z M11,2H9V1h2V2z M2,9H1V6h1V9z M2,12H1v-2h1V12z M3,2H1V1h2V2z M7,2H5V1h2V2z M14,6h1v3h-1V6z M1,13h2v1H1V13z M14,3h1v2h-1V3z
	 M15,1v1h-2V1H15z M14,10h1v2h-1V10z M13,13h2v1h-2V13z M5,13h2v1H5V13z M9,13h2v1H9V13z"/>
</svg>
